# 3ds Max Wavefront OBJ Exporter v0.97b - (c)2007 guruware
# File Created: 30.05.2019 11:40:07

#
# object Libro_GAME
#

v  -155.7426 0.0000 9.9705
v  -155.7426 0.0000 -20.2494
v  -136.3040 0.0000 -20.2494
v  -136.3040 0.0000 9.9705
v  -155.7426 4.7424 9.9705
v  -136.3040 4.7424 9.9705
v  -136.3040 4.7424 -20.2494
v  -155.7426 4.7424 -20.2494
v  -154.6537 0.6379 9.0121
v  -136.7195 0.6379 9.0121
v  -136.7195 1.6309 9.0121
v  -155.3550 1.7697 9.0121
v  -136.7195 3.1114 9.0121
v  -155.3550 2.9727 9.0121
v  -136.7195 4.1045 9.0121
v  -154.6537 4.1045 9.0121
v  -136.7195 0.6379 -19.2910
v  -136.7195 1.6309 -19.2910
v  -136.7195 3.1114 -19.2910
v  -136.7195 4.1045 -19.2910
v  -154.6537 0.6379 -19.2910
v  -155.3550 1.7697 -19.2910
v  -155.3550 2.9727 -19.2910
v  -154.6537 4.1045 -19.2910
v  -156.7222 1.5808 9.9705
v  -156.7222 1.5808 -20.2494
v  -156.7222 3.1616 9.9705
v  -156.7222 3.1616 -20.2494
# 28 vertices

vn 0.0000 -1.0000 -0.0000
vn 0.0000 1.0000 -0.0000
vn 0.0000 0.0000 1.0000
vn 1.0000 0.0000 -0.0000
vn 0.0000 0.0000 -1.0000
vn -0.8500 -0.5267 -0.0000
vn -0.9618 -0.2738 -0.0000
vn -0.9618 0.2738 -0.0000
vn -0.8500 0.5267 -0.0000
vn 0.0000 0.8325 -0.5541
vn 0.5142 0.3186 -0.7963
vn 0.5740 0.0000 -0.8188
vn 0.5142 -0.3186 -0.7963
vn 0.0000 -0.8325 -0.5541
vn 0.8380 -0.5457 -0.0000
vn 0.0000 -0.8325 0.5541
vn 0.5142 -0.3186 0.7963
vn 0.5740 0.0000 0.8188
vn 0.5142 0.3186 0.7963
vn 0.0000 0.8325 0.5541
vn 0.8380 0.5457 -0.0000
# 21 vertex normals

vt 0.5302 0.9758 0.0000
vt 0.0192 0.9758 0.0000
vt 0.0192 0.6471 0.0000
vt 0.5302 0.6471 0.0000
vt 0.0164 0.5899 0.0000
vt 0.0164 0.2612 0.0000
vt 0.5274 0.2612 0.0000
vt 0.5274 0.5899 0.0000
vt 0.8496 0.6319 0.0000
vt 0.8496 0.0236 0.0000
vt 0.8833 0.0236 0.0000
vt 0.8880 0.6557 0.0000
vt 0.9335 0.0236 0.0000
vt 0.9288 0.6557 0.0000
vt 0.9672 0.0236 0.0000
vt 0.9672 0.6319 0.0000
vt 0.7864 0.0180 0.0000
vt 0.7864 0.9780 0.0000
vt 0.7527 0.9780 0.0000
vt 0.7527 0.0180 0.0000
vt 0.7025 0.9780 0.0000
vt 0.7025 0.0180 0.0000
vt 0.6688 0.9780 0.0000
vt 0.6688 0.0180 0.0000
vt 0.6077 0.1944 0.0000
vt 0.0511 0.1944 0.0000
vt 0.0294 0.1593 0.0000
vt 0.6077 0.1636 0.0000
vt 0.0294 0.1220 0.0000
vt 0.6077 0.1177 0.0000
vt 0.0511 0.0869 0.0000
vt 0.6077 0.0869 0.0000
vt 0.6269 0.3136 0.0000
vt 0.6269 0.7936 0.0000
vt 0.6018 0.7936 0.0000
vt 0.6018 0.3136 0.0000
vt 0.5767 0.7936 0.0000
vt 0.5767 0.3136 0.0000
vt 0.5515 0.7936 0.0000
vt 0.5515 0.3136 0.0000
vt 0.6077 0.2096 0.0000
vt 0.0427 0.2096 0.0000
vt 0.0142 0.1636 0.0000
vt 0.0142 0.1177 0.0000
vt 0.0427 0.0717 0.0000
vt 0.6077 0.0717 0.0000
vt 0.6523 0.9780 0.0000
vt 0.6523 0.0180 0.0000
vt 0.9837 0.0236 0.0000
vt 0.9837 0.6411 0.0000
vt 0.9335 0.6722 0.0000
vt 0.8833 0.6722 0.0000
vt 0.8331 0.6411 0.0000
vt 0.8331 0.0236 0.0000
vt 0.8029 0.0180 0.0000
vt 0.8029 0.9780 0.0000
# 56 texture coords

g Libro_GAME
s 2
f 1/1/1 2/2/1 3/3/1 
f 3/3/1 4/4/1 1/1/1 
s 4
f 5/5/2 6/6/2 7/7/2 
f 7/7/2 8/8/2 5/5/2 
s 8
f 9/9/3 10/10/3 11/11/3 
f 11/11/3 12/12/3 9/9/3 
f 12/12/3 11/11/3 13/13/3 
f 13/13/3 14/14/3 12/12/3 
f 14/14/3 13/13/3 15/15/3 
f 15/15/3 16/16/3 14/14/3 
s 16
f 10/17/4 17/18/4 18/19/4 
f 18/19/4 11/20/4 10/17/4 
f 11/20/4 18/19/4 19/21/4 
f 19/21/4 13/22/4 11/20/4 
f 13/22/4 19/21/4 20/23/4 
f 20/23/4 15/24/4 13/22/4 
s 32
f 17/25/5 21/26/5 22/27/5 
f 22/27/5 18/28/5 17/25/5 
f 18/28/5 22/27/5 23/29/5 
f 23/29/5 19/30/5 18/28/5 
f 19/30/5 23/29/5 24/31/5 
f 24/31/5 20/32/5 19/30/5 
s 64
f 2/33/6 1/34/6 25/35/7 
f 25/35/7 26/36/7 2/33/6 
f 26/36/7 25/35/7 27/37/8 
f 27/37/8 28/38/8 26/36/7 
f 28/38/8 27/37/8 5/39/9 
f 5/39/9 8/40/9 28/38/8 
s off
f 3/41/10 2/42/10 21/26/10 
f 21/26/10 17/25/10 3/41/10 
f 2/42/11 26/43/11 22/27/11 
f 22/27/11 21/26/11 2/42/11 
f 26/43/12 28/44/12 23/29/12 
f 23/29/12 22/27/12 26/43/12 
f 28/44/13 8/45/13 24/31/13 
f 24/31/13 23/29/13 28/44/13 
f 8/45/14 7/46/14 20/32/14 
f 20/32/14 24/31/14 8/45/14 
f 7/47/15 6/48/15 15/24/15 
f 15/24/15 20/23/15 7/47/15 
f 6/49/16 5/50/16 16/16/16 
f 16/16/16 15/15/16 6/49/16 
f 5/50/17 27/51/17 14/14/17 
f 14/14/17 16/16/17 5/50/17 
f 27/51/18 25/52/18 12/12/18 
f 12/12/18 14/14/18 27/51/18 
f 25/52/19 1/53/19 9/9/19 
f 9/9/19 12/12/19 25/52/19 
f 1/53/20 4/54/20 10/10/20 
f 10/10/20 9/9/20 1/53/20 
f 4/55/21 3/56/21 17/18/21 
f 17/18/21 10/17/21 4/55/21 
# 52 faces

