# 3ds Max Wavefront OBJ Exporter v0.97b - (c)2007 guruware
# File Created: 26.05.2019 23:26:47

#
# object mineral_GAME
#

v  -58.1207 0.0000 0.5006
v  -59.6389 0.0000 -2.1290
v  -58.5377 14.9594 -4.0365
v  -55.9182 14.9594 0.5006
v  -62.6753 0.0000 -2.1290
v  -63.7766 14.9594 -4.0365
v  -64.1935 0.0000 0.5006
v  -66.3960 14.9594 0.5006
v  -62.6753 0.0000 3.1302
v  -63.7766 14.9594 5.0376
v  -59.6389 0.0000 3.1302
v  -58.5377 14.9594 5.0376
v  -59.6389 0.0000 0.5006
v  -60.3980 0.0000 -0.8142
v  -61.9162 0.0000 -0.8142
v  -62.6753 0.0000 0.5006
v  -61.9162 0.0000 1.8154
v  -60.3980 0.0000 1.8154
v  -61.1571 0.0000 0.5006
v  -60.0476 18.2063 -1.6417
v  -58.9382 18.2063 0.5006
v  -62.2666 18.2063 -1.6417
v  -63.3761 18.2063 0.5006
v  -62.2666 18.2063 2.6429
v  -60.0476 18.2063 2.6429
v  -61.1571 20.6941 0.5006
v  -55.0455 -0.0248 0.4109
v  -56.2141 0.5844 -1.6027
v  -53.2148 9.7956 -1.3294
v  -51.4515 8.8764 1.7086
v  -58.5514 1.1503 -1.5130
v  -56.7414 10.6495 -1.1941
v  -59.7201 1.1070 0.5903
v  -58.5046 10.5841 1.9793
v  -58.5514 0.4978 2.6038
v  -56.7414 9.6650 5.0174
v  -56.2141 -0.0681 2.5141
v  -53.2148 8.8111 4.8821
v  -56.2141 0.2581 0.4557
v  -56.7985 0.5628 -0.5510
v  -57.9671 0.8457 -0.5062
v  -58.5514 0.8241 0.5454
v  -57.9671 0.5195 1.5522
v  -56.7985 0.2365 1.5073
v  -57.3828 0.5411 0.5006
v  -53.6296 11.5843 0.3186
v  -52.7258 11.0842 2.0586
v  -55.4372 12.0219 0.3879
v  -56.3410 11.9595 2.1973
v  -55.4372 11.4594 3.9373
v  -53.6296 11.0217 3.8679
v  -54.1282 13.1542 2.3867
v  -57.8162 2.8038 4.0933
v  -58.1225 2.5263 2.7262
v  -63.5729 5.1671 3.0586
v  -62.9540 5.7277 5.8209
v  -58.5843 1.2292 2.3469
v  -64.5060 2.5461 2.2922
v  -58.7398 0.2096 3.3347
v  -64.8203 0.4856 4.2881
v  -58.4335 0.4870 4.7018
v  -64.2014 1.0462 7.0505
v  -57.9717 1.7841 5.0810
v  -63.2682 3.6673 7.8169
v  -58.0471 2.1552 3.9036
v  -58.2002 2.0165 3.2201
v  -58.4311 1.3679 3.0305
v  -58.5089 0.8581 3.5243
v  -58.3557 0.9968 4.2079
v  -58.1248 1.6454 4.3975
v  -58.2780 1.5067 3.7140
v  -65.1367 4.6398 4.1176
v  -64.8105 4.8830 5.6735
v  -65.6150 3.2963 3.7248
v  -65.7671 2.1961 4.8879
v  -65.4409 2.4393 6.4438
v  -64.9626 3.7828 6.8366
v  -66.5659 3.9340 5.4868
v  -63.5179 0.9861 -0.3509
v  -64.0785 1.2167 -1.6336
v  -66.3186 9.6744 -0.1136
v  -65.0582 9.1558 2.7705
v  -65.3941 0.7717 -1.9233
v  -69.2768 8.6738 -0.7648
v  -66.1492 0.0961 -0.9302
v  -70.9746 7.1548 1.4682
v  -65.5886 -0.1345 0.3525
v  -69.7141 6.6362 4.3523
v  -64.2730 0.3105 0.6422
v  -66.7559 7.6368 5.0035
v  -64.1757 0.7636 -0.4957
v  -64.4560 0.8789 -1.1371
v  -65.1138 0.6564 -1.2819
v  -65.4914 0.3186 -0.7854
v  -65.2111 0.2033 -0.1440
v  -64.5533 0.4258 0.0008
v  -64.8335 0.5411 -0.6406
v  -67.7334 10.4296 1.3446
v  -67.1002 10.1038 2.9735
v  -69.2497 9.9167 1.0108
v  -70.1328 9.0782 2.3060
v  -69.4996 8.7524 3.9349
v  -67.9833 9.2653 4.2687
v  -69.1633 10.8991 3.1139
v  -58.0764 2.8864 -2.3235
v  -57.8110 2.5913 -3.7898
v  -63.0665 5.0997 -5.4926
v  -63.5518 5.6392 -2.8116
v  -58.1066 1.2116 -4.3525
v  -63.6071 2.5770 -6.5215
v  -58.6676 0.1270 -3.4489
v  -64.6329 0.5938 -4.8694
v  -58.9330 0.4221 -1.9826
v  -65.1182 1.1334 -2.1883
v  -58.6374 1.8018 -1.4199
v  -64.5777 3.6561 -1.1594
v  -58.2242 2.1965 -2.6048
v  -58.0915 2.0490 -3.3380
v  -58.2393 1.3591 -3.6193
v  -58.5198 0.8168 -3.1675
v  -58.6525 0.9644 -2.4344
v  -58.5047 1.6542 -2.1530
v  -58.3720 1.5067 -2.8862
v  -64.8496 4.5922 -5.1390
v  -65.1428 4.8262 -3.6372
v  -65.1267 3.2991 -5.6664
v  -65.6969 2.2401 -4.6920
v  -65.9902 2.4742 -3.1903
v  -65.7131 3.7673 -2.6629
v  -66.6295 3.9128 -4.4600
# 130 vertices

vn 0.9893 -0.1457 -0.0000
vn 0.4947 -0.1457 -0.8568
vn -0.4947 -0.1457 -0.8568
vn -0.9893 -0.1457 0.0000
vn -0.4947 -0.1457 0.8568
vn 0.4947 -0.1457 0.8568
vn 0.0000 -1.0000 -0.0000
vn 0.7370 0.6759 0.0040
vn 0.3810 0.6570 -0.6505
vn 0.3703 0.6767 -0.6364
vn 0.7419 0.6705 0.0082
vn -0.3821 0.6626 -0.6441
vn -0.3799 0.6722 -0.6355
vn -0.7370 0.6759 -0.0040
vn -0.7419 0.6705 -0.0082
vn -0.3810 0.6570 0.6505
vn -0.3703 0.6767 0.6364
vn 0.3821 0.6626 0.6441
vn 0.3799 0.6722 0.6355
vn -0.0000 1.0000 0.0000
vn 0.9286 -0.3670 -0.0542
vn 0.4451 -0.1186 -0.8876
vn 0.4480 -0.1196 -0.8860
vn 0.9286 -0.3660 -0.0615
vn -0.5172 0.1270 -0.8464
vn -0.5083 0.1254 -0.8520
vn -0.9920 0.1238 0.0235
vn -0.9920 0.1248 0.0163
vn -0.5104 -0.1233 0.8510
vn -0.5076 -0.1243 0.8526
vn 0.4479 -0.3685 0.8146
vn 0.4568 -0.3700 0.8089
vn -0.2381 -0.9593 -0.1520
vn 0.8730 0.4809 0.0816
vn 0.5291 0.6381 -0.5594
vn 0.5117 0.6868 -0.5162
vn 0.8575 0.5067 0.0895
vn -0.2181 0.8249 -0.5215
vn -0.1883 0.8518 -0.4888
vn -0.5484 0.8267 0.1256
vn -0.5223 0.8436 0.1246
vn -0.2181 0.6148 0.7580
vn -0.1773 0.6604 0.7297
vn 0.5324 0.4415 0.7222
vn 0.5207 0.4873 0.7010
vn 0.2381 0.9593 0.1520
vn 0.5342 0.8218 0.1979
vn 0.2683 0.6440 -0.7164
vn 0.2763 0.6584 -0.7001
vn 0.5400 0.8064 0.2412
vn -0.0422 -0.2302 -0.9722
vn -0.0473 -0.2530 -0.9663
vn -0.0928 -0.9434 -0.3184
vn -0.0866 -0.9576 -0.2747
vn 0.1717 -0.7763 0.6065
vn 0.1793 -0.7623 0.6219
vn 0.4871 0.1116 0.8662
vn 0.4821 0.0899 0.8715
vn 0.9443 -0.2916 -0.1524
vn -0.4067 0.8618 0.3033
vn -0.5320 0.7356 -0.4194
vn -0.5860 0.7122 -0.3865
vn -0.4344 0.8477 0.3045
vn -0.7876 0.0349 -0.6152
vn -0.8147 0.0569 -0.5771
vn -0.8805 -0.4642 -0.0955
vn -0.8948 -0.4372 -0.0900
vn -0.7013 -0.3547 0.6184
vn -0.7402 -0.3026 0.6005
vn -0.4592 0.3501 0.8164
vn -0.5035 0.3502 0.7898
vn -0.9443 0.2916 0.1524
vn 0.9817 0.1328 0.1368
vn 0.5945 0.2921 -0.7492
vn -0.3142 -0.0152 -0.9492
vn -0.8357 -0.4819 -0.2633
vn -0.4486 -0.6412 0.6227
vn 0.4601 -0.3338 0.8227
vn 0.3658 -0.8750 -0.3172
vn 0.4289 0.8239 0.3705
vn 0.1695 0.9326 -0.3186
vn 0.1210 0.9533 -0.2766
vn 0.4006 0.8353 0.3766
vn -0.5488 0.6940 -0.4661
vn -0.5450 0.7235 -0.4237
vn -0.9274 0.3688 0.0619
vn -0.9154 0.3964 0.0698
vn -0.6472 0.2102 0.7328
vn -0.6346 0.2755 0.7220
vn 0.0659 0.4612 0.8848
vn 0.0344 0.4980 0.8665
vn -0.3658 0.8750 0.3172
vn 0.3868 0.8377 0.3856
vn 0.4972 0.6574 -0.5662
vn 0.4982 0.6719 -0.5480
vn 0.3752 0.8222 0.4281
vn 0.3096 -0.2218 -0.9246
vn 0.3025 -0.2446 -0.9212
vn 0.0071 -0.9407 -0.3392
vn -0.0042 -0.9551 -0.2963
vn -0.1097 -0.7737 0.6240
vn -0.1087 -0.7596 0.6413
vn 0.0816 0.1224 0.9891
vn 0.0748 0.1004 0.9921
vn 0.9292 -0.2916 0.2269
vn -0.4926 0.8618 0.1212
vn -0.3270 0.7356 -0.5933
vn -0.3896 0.7122 -0.5840
vn -0.5186 0.8477 0.1116
vn -0.4863 0.0349 -0.8731
vn -0.5261 0.0569 -0.8485
vn -0.7741 -0.4642 -0.4305
vn -0.7894 -0.4372 -0.4310
vn -0.8866 -0.3547 0.2969
vn -0.9154 -0.3026 0.2653
vn -0.7406 0.3501 0.5736
vn -0.7711 0.3502 0.5318
vn -0.9292 0.2916 -0.2269
# 118 vertex normals

vt 0.2241 0.5849 0.0000
vt 0.2753 0.5849 0.0000
vt 0.3124 0.8762 0.0000
vt 0.2241 0.8762 0.0000
vt 0.3545 0.5785 0.0000
vt 0.4136 0.5785 0.0000
vt 0.4351 0.8697 0.0000
vt 0.3331 0.8697 0.0000
vt 0.4932 0.5860 0.0000
vt 0.5444 0.5860 0.0000
vt 0.5444 0.8772 0.0000
vt 0.4561 0.8772 0.0000
vt 0.5956 0.5860 0.0000
vt 0.6328 0.8772 0.0000
vt 0.0340 0.5755 0.0000
vt 0.0931 0.5755 0.0000
vt 0.1146 0.8668 0.0000
vt 0.0126 0.8668 0.0000
vt 0.1729 0.5849 0.0000
vt 0.1358 0.8762 0.0000
vt 0.1160 0.4004 0.0000
vt 0.1456 0.4516 0.0000
vt 0.1160 0.4516 0.0000
vt 0.1013 0.4260 0.0000
vt 0.0569 0.4004 0.0000
vt 0.0717 0.4260 0.0000
vt 0.0274 0.4516 0.0000
vt 0.0569 0.4516 0.0000
vt 0.0569 0.5028 0.0000
vt 0.0717 0.4772 0.0000
vt 0.1160 0.5028 0.0000
vt 0.1013 0.4772 0.0000
vt 0.0865 0.4516 0.0000
vt 0.2658 0.9394 0.0000
vt 0.2241 0.9394 0.0000
vt 0.4057 0.9329 0.0000
vt 0.3625 0.9329 0.0000
vt 0.5444 0.9404 0.0000
vt 0.5027 0.9404 0.0000
vt 0.5861 0.9404 0.0000
vt 0.0852 0.9300 0.0000
vt 0.0420 0.9300 0.0000
vt 0.1824 0.9394 0.0000
vt 0.2241 0.9878 0.0000
vt 0.3841 0.9813 0.0000
vt 0.5444 0.9888 0.0000
vt 0.0636 0.9784 0.0000
vt 0.2300 0.5342 0.0000
vt 0.1846 0.5223 0.0000
vt 0.1830 0.3165 0.0000
vt 0.2516 0.3345 0.0000
vt 0.6788 0.5241 0.0000
vt 0.6251 0.5237 0.0000
vt 0.6162 0.3079 0.0000
vt 0.6972 0.3085 0.0000
vt 0.5642 0.5294 0.0000
vt 0.5179 0.5213 0.0000
vt 0.5279 0.3076 0.0000
vt 0.5978 0.3197 0.0000
vt 0.4711 0.5261 0.0000
vt 0.4574 0.3148 0.0000
vt 0.4183 0.5427 0.0000
vt 0.3646 0.5410 0.0000
vt 0.3527 0.3320 0.0000
vt 0.4337 0.3345 0.0000
vt 0.2770 0.5335 0.0000
vt 0.3225 0.3333 0.0000
vt 0.7126 0.5939 0.0000
vt 0.7369 0.6398 0.0000
vt 0.7108 0.6398 0.0000
vt 0.6986 0.6168 0.0000
vt 0.6603 0.5938 0.0000
vt 0.6725 0.6168 0.0000
vt 0.6324 0.6397 0.0000
vt 0.6585 0.6398 0.0000
vt 0.6567 0.6857 0.0000
vt 0.6707 0.6627 0.0000
vt 0.7090 0.6857 0.0000
vt 0.6968 0.6628 0.0000
vt 0.6846 0.6398 0.0000
vt 0.2183 0.2752 0.0000
vt 0.2575 0.2849 0.0000
vt 0.6375 0.2714 0.0000
vt 0.6791 0.2718 0.0000
vt 0.5290 0.2765 0.0000
vt 0.5689 0.2829 0.0000
vt 0.4887 0.2801 0.0000
vt 0.3748 0.2868 0.0000
vt 0.4163 0.2881 0.0000
vt 0.2980 0.2848 0.0000
vt 0.2631 0.2384 0.0000
vt 0.6603 0.2401 0.0000
vt 0.5692 0.2558 0.0000
vt 0.5242 0.2272 0.0000
vt 0.4899 0.2568 0.0000
vt 0.3981 0.2439 0.0000
vt 0.9515 0.1822 0.0000
vt 0.9463 0.2181 0.0000
vt 0.8049 0.2203 0.0000
vt 0.8154 0.1478 0.0000
vt 0.9186 0.4881 0.0000
vt 0.9173 0.5237 0.0000
vt 0.7609 0.5374 0.0000
vt 0.7635 0.4655 0.0000
vt 0.9215 0.5501 0.0000
vt 0.7693 0.5907 0.0000
vt 0.8821 0.2514 0.0000
vt 0.8831 0.2876 0.0000
vt 0.7249 0.3188 0.0000
vt 0.7229 0.2455 0.0000
vt 0.7254 0.3768 0.0000
vt 0.7363 0.3428 0.0000
vt 0.8748 0.3872 0.0000
vt 0.8528 0.4558 0.0000
vt 0.8973 0.6269 0.0000
vt 0.8960 0.6636 0.0000
vt 0.8105 0.6838 0.0000
vt 0.8131 0.6096 0.0000
vt 0.9257 0.6841 0.0000
vt 0.9115 0.6555 0.0000
vt 0.9264 0.6658 0.0000
vt 0.9567 0.6680 0.0000
vt 0.9419 0.6577 0.0000
vt 0.9580 0.6312 0.0000
vt 0.9425 0.6393 0.0000
vt 0.9283 0.6107 0.0000
vt 0.9277 0.6291 0.0000
vt 0.9122 0.6372 0.0000
vt 0.9270 0.6474 0.0000
vt 0.7625 0.1961 0.0000
vt 0.7678 0.1553 0.0000
vt 0.9192 0.0067 0.0000
vt 0.9203 0.0774 0.0000
vt 0.8897 0.0488 0.0000
vt 0.8891 0.0126 0.0000
vt 0.8563 0.1151 0.0000
vt 0.8531 0.0683 0.0000
vt 0.7912 0.0821 0.0000
vt 0.8159 0.0515 0.0000
vt 0.7901 0.0114 0.0000
vt 0.8154 0.0153 0.0000
vt 0.9007 0.3399 0.0000
vt 0.9256 0.3864 0.0000
vt 0.9115 0.4115 0.0000
vt 0.7229 0.1636 0.0000
vt 0.8501 0.0208 0.0000
vt 0.9468 0.4335 0.0000
vt 0.8157 0.9195 0.0000
vt 0.8227 0.9381 0.0000
vt 0.7004 0.9839 0.0000
vt 0.6847 0.9422 0.0000
vt 0.8373 0.9763 0.0000
vt 0.8361 0.9552 0.0000
vt 0.9676 0.9302 0.0000
vt 0.9703 0.9776 0.0000
vt 0.6719 0.7803 0.0000
vt 0.6648 0.7635 0.0000
vt 0.7770 0.7482 0.0000
vt 0.7932 0.7859 0.0000
vt 0.6650 0.7437 0.0000
vt 0.7777 0.7037 0.0000
vt 0.6648 0.8285 0.0000
vt 0.6700 0.8080 0.0000
vt 0.7839 0.8371 0.0000
vt 0.7722 0.8831 0.0000
vt 0.8169 0.9013 0.0000
vt 0.6873 0.9012 0.0000
vt 0.9168 0.8719 0.0000
vt 0.8955 0.8717 0.0000
vt 0.9016 0.8635 0.0000
vt 0.9122 0.8636 0.0000
vt 0.9290 0.8555 0.0000
vt 0.9183 0.8554 0.0000
vt 0.9199 0.8389 0.0000
vt 0.9138 0.8471 0.0000
vt 0.8986 0.8386 0.0000
vt 0.9032 0.8470 0.0000
vt 0.8864 0.8551 0.0000
vt 0.8971 0.8552 0.0000
vt 0.9077 0.8553 0.0000
vt 0.9786 0.7635 0.0000
vt 0.9645 0.8092 0.0000
vt 0.9407 0.7896 0.0000
vt 0.9474 0.7639 0.0000
vt 0.9857 0.9356 0.0000
vt 0.9870 0.9599 0.0000
vt 0.8082 0.7413 0.0000
vt 0.8169 0.7631 0.0000
vt 0.8080 0.7160 0.0000
vt 0.8100 0.8538 0.0000
vt 0.8040 0.8774 0.0000
vt 0.8049 0.8096 0.0000
vt 0.8217 0.8395 0.0000
vt 0.9160 0.7654 0.0000
vt 0.9183 0.7973 0.0000
vt 0.8377 0.7345 0.0000
vt 0.8361 0.8698 0.0000
vt 0.1959 0.1822 0.0000
vt 0.1989 0.1483 0.0000
vt 0.3250 0.1427 0.0000
vt 0.3194 0.2047 0.0000
vt 0.0306 0.0775 0.0000
vt 0.0346 0.0480 0.0000
vt 0.1523 0.0678 0.0000
vt 0.1450 0.1217 0.0000
vt 0.0446 0.0244 0.0000
vt 0.1706 0.0246 0.0000
vt 0.3684 0.0348 0.0000
vt 0.3675 0.0661 0.0000
vt 0.2381 0.0817 0.0000
vt 0.2396 0.0244 0.0000
vt 0.0276 0.2191 0.0000
vt 0.0319 0.1871 0.0000
vt 0.1739 0.1932 0.0000
vt 0.1660 0.2516 0.0000
vt 0.0282 0.1595 0.0000
vt 0.1672 0.1427 0.0000
vt 0.6456 0.1075 0.0000
vt 0.6653 0.1375 0.0000
vt 0.6474 0.1375 0.0000
vt 0.6375 0.1224 0.0000
vt 0.6098 0.1073 0.0000
vt 0.6196 0.1224 0.0000
vt 0.5937 0.1372 0.0000
vt 0.6116 0.1373 0.0000
vt 0.6134 0.1673 0.0000
vt 0.6215 0.1523 0.0000
vt 0.6492 0.1674 0.0000
vt 0.6394 0.1524 0.0000
vt 0.6295 0.1374 0.0000
vt 0.3621 0.1613 0.0000
vt 0.3595 0.1961 0.0000
vt 0.1853 0.0806 0.0000
vt 0.1816 0.1082 0.0000
vt 0.1956 0.0574 0.0000
vt 0.5001 0.0730 0.0000
vt 0.4797 0.1355 0.0000
vt 0.4505 0.1079 0.0000
vt 0.4603 0.0727 0.0000
vt 0.4167 0.1531 0.0000
vt 0.4182 0.1169 0.0000
vt 0.5937 0.0842 0.0000
vt 0.5940 0.0175 0.0000
vt 0.6383 0.0340 0.0000
vt 0.6371 0.0711 0.0000
vt 0.3972 0.1870 0.0000
vt 0.2179 0.0910 0.0000
vt 0.5232 0.1099 0.0000
vt 0.5236 0.0727 0.0000
vt 0.5670 0.0890 0.0000
vt 0.4197 0.0736 0.0000
vt 0.6812 0.0512 0.0000
# 252 texture coords

g mineral_GAME
s 8
f 1/1/1 2/2/2 3/3/2 
f 3/3/2 4/4/1 1/1/1 
f 2/5/2 5/6/3 6/7/3 
f 6/7/3 3/8/2 2/5/2 
f 5/9/3 7/10/4 8/11/4 
f 8/11/4 6/12/3 5/9/3 
f 7/10/4 9/13/5 10/14/5 
f 10/14/5 8/11/4 7/10/4 
f 9/15/5 11/16/6 12/17/6 
f 12/17/6 10/18/5 9/15/5 
f 11/19/6 1/1/1 4/4/1 
f 4/4/1 12/20/6 11/19/6 
s 1
f 2/21/7 1/22/7 13/23/7 
f 13/23/7 14/24/7 2/21/7 
f 5/25/7 2/21/7 14/24/7 
f 14/24/7 15/26/7 5/25/7 
f 7/27/7 5/25/7 15/26/7 
f 15/26/7 16/28/7 7/27/7 
f 9/29/7 7/27/7 16/28/7 
f 16/28/7 17/30/7 9/29/7 
f 11/31/7 9/29/7 17/30/7 
f 17/30/7 18/32/7 11/31/7 
f 1/22/7 11/31/7 18/32/7 
f 18/32/7 13/23/7 1/22/7 
f 14/24/7 13/23/7 19/33/7 
f 15/26/7 14/24/7 19/33/7 
f 16/28/7 15/26/7 19/33/7 
f 17/30/7 16/28/7 19/33/7 
f 18/32/7 17/30/7 19/33/7 
f 13/23/7 18/32/7 19/33/7 
f 4/4/8 3/3/9 20/34/10 
f 20/34/10 21/35/11 4/4/8 
f 3/8/9 6/7/12 22/36/13 
f 22/36/13 20/37/10 3/8/9 
f 6/12/12 8/11/14 23/38/15 
f 23/38/15 22/39/13 6/12/12 
f 8/11/14 10/14/16 24/40/17 
f 24/40/17 23/38/15 8/11/14 
f 10/18/16 12/17/18 25/41/19 
f 25/41/19 24/42/17 10/18/16 
f 12/20/18 4/4/8 21/35/11 
f 21/35/11 25/43/19 12/20/18 
f 21/35/11 20/34/10 26/44/20 
f 20/37/10 22/36/13 26/45/20 
f 22/39/13 23/38/15 26/46/20 
f 23/38/15 24/40/17 26/46/20 
f 24/42/17 25/41/19 26/47/20 
f 25/43/19 21/35/11 26/44/20 
s 8
f 27/48/21 28/49/22 29/50/23 
f 29/50/23 30/51/24 27/48/21 
f 28/52/22 31/53/25 32/54/26 
f 32/54/26 29/55/23 28/52/22 
f 31/56/25 33/57/27 34/58/28 
f 34/58/28 32/59/26 31/56/25 
f 33/57/27 35/60/29 36/61/30 
f 36/61/30 34/58/28 33/57/27 
f 35/62/29 37/63/31 38/64/32 
f 38/64/32 36/65/30 35/62/29 
f 37/66/31 27/48/21 30/51/24 
f 30/51/24 38/67/32 37/66/31 
s 1
f 28/68/33 27/69/33 39/70/33 
f 39/70/33 40/71/33 28/68/33 
f 31/72/33 28/68/33 40/71/33 
f 40/71/33 41/73/33 31/72/33 
f 33/74/33 31/72/33 41/73/33 
f 41/73/33 42/75/33 33/74/33 
f 35/76/33 33/74/33 42/75/33 
f 42/75/33 43/77/33 35/76/33 
f 37/78/33 35/76/33 43/77/33 
f 43/77/33 44/79/33 37/78/33 
f 27/69/33 37/78/33 44/79/33 
f 44/79/33 39/70/33 27/69/33 
f 40/71/33 39/70/33 45/80/33 
f 41/73/33 40/71/33 45/80/33 
f 42/75/33 41/73/33 45/80/33 
f 43/77/33 42/75/33 45/80/33 
f 44/79/33 43/77/33 45/80/33 
f 39/70/33 44/79/33 45/80/33 
f 30/51/34 29/50/35 46/81/36 
f 46/81/36 47/82/37 30/51/34 
f 29/55/35 32/54/38 48/83/39 
f 48/83/39 46/84/36 29/55/35 
f 32/59/38 34/58/40 49/85/41 
f 49/85/41 48/86/39 32/59/38 
f 34/58/40 36/61/42 50/87/43 
f 50/87/43 49/85/41 34/58/40 
f 36/65/42 38/64/44 51/88/45 
f 51/88/45 50/89/43 36/65/42 
f 38/67/44 30/51/34 47/82/37 
f 47/82/37 51/90/45 38/67/44 
f 47/82/37 46/81/36 52/91/46 
f 46/84/36 48/83/39 52/92/46 
f 48/93/39 49/85/41 52/94/46 
f 49/85/41 50/95/43 52/94/46 
f 50/89/43 51/88/45 52/96/46 
f 51/90/45 47/82/37 52/91/46 
s 8
f 53/97/47 54/98/48 55/99/49 
f 55/99/49 56/100/50 53/97/47 
f 54/101/48 57/102/51 58/103/52 
f 58/103/52 55/104/49 54/101/48 
f 57/102/51 59/105/53 60/106/54 
f 60/106/54 58/103/52 57/102/51 
f 59/107/53 61/108/55 62/109/56 
f 62/109/56 60/110/54 59/107/53 
f 61/111/55 63/112/57 64/113/58 
f 64/113/58 62/114/56 61/111/55 
f 63/115/57 53/116/47 56/117/50 
f 56/117/50 64/118/58 63/115/57 
s 1
f 54/119/59 53/116/59 65/120/59 
f 65/120/59 66/121/59 54/119/59 
f 57/122/59 54/119/59 66/121/59 
f 66/121/59 67/123/59 57/122/59 
f 59/124/59 57/122/59 67/123/59 
f 67/123/59 68/125/59 59/124/59 
f 61/126/59 59/124/59 68/125/59 
f 68/125/59 69/127/59 61/126/59 
f 63/115/59 61/126/59 69/127/59 
f 69/127/59 70/128/59 63/115/59 
f 53/116/59 63/115/59 70/128/59 
f 70/128/59 65/120/59 53/116/59 
f 66/121/59 65/120/59 71/129/59 
f 67/123/59 66/121/59 71/129/59 
f 68/125/59 67/123/59 71/129/59 
f 69/127/59 68/125/59 71/129/59 
f 70/128/59 69/127/59 71/129/59 
f 65/120/59 70/128/59 71/129/59 
f 56/100/60 55/99/61 72/130/62 
f 72/130/62 73/131/63 56/100/60 
f 55/132/61 58/133/64 74/134/65 
f 74/134/65 72/135/62 55/132/61 
f 58/133/64 60/136/66 75/137/67 
f 75/137/67 74/134/65 58/133/64 
f 60/136/66 62/138/68 76/139/69 
f 76/139/69 75/137/67 60/136/66 
f 62/138/68 64/140/70 77/141/71 
f 77/141/71 76/139/69 62/138/68 
f 64/113/70 56/142/60 73/143/63 
f 73/143/63 77/144/71 64/113/70 
f 73/131/63 72/130/62 78/145/72 
f 72/135/62 74/134/65 78/146/72 
f 74/134/65 75/137/67 78/146/72 
f 75/137/67 76/139/69 78/146/72 
f 76/139/69 77/141/71 78/146/72 
f 77/144/71 73/143/63 78/147/72 
s 8
f 79/148/73 80/149/74 81/150/74 
f 81/150/74 82/151/73 79/148/73 
f 80/152/74 83/153/75 84/154/75 
f 84/154/75 81/155/74 80/152/74 
f 83/156/75 85/157/76 86/158/76 
f 86/158/76 84/159/75 83/156/75 
f 85/157/76 87/160/77 88/161/77 
f 88/161/77 86/158/76 85/157/76 
f 87/162/77 89/163/78 90/164/78 
f 90/164/78 88/165/77 87/162/77 
f 89/166/78 79/148/73 82/151/73 
f 82/151/73 90/167/78 89/166/78 
s 1
f 80/168/79 79/169/79 91/170/79 
f 91/170/79 92/171/79 80/168/79 
f 83/172/79 80/168/79 92/171/79 
f 92/171/79 93/173/79 83/172/79 
f 85/174/79 83/172/79 93/173/79 
f 93/173/79 94/175/79 85/174/79 
f 87/176/79 85/174/79 94/175/79 
f 94/175/79 95/177/79 87/176/79 
f 89/178/79 87/176/79 95/177/79 
f 95/177/79 96/179/79 89/178/79 
f 79/169/79 89/178/79 96/179/79 
f 96/179/79 91/170/79 79/169/79 
f 92/171/79 91/170/79 97/180/79 
f 93/173/79 92/171/79 97/180/79 
f 94/175/79 93/173/79 97/180/79 
f 95/177/79 94/175/79 97/180/79 
f 96/179/79 95/177/79 97/180/79 
f 91/170/79 96/179/79 97/180/79 
f 82/181/80 81/182/81 98/183/82 
f 98/183/82 99/184/83 82/181/80 
f 81/155/81 84/154/84 100/185/85 
f 100/185/85 98/186/82 81/155/81 
f 84/159/84 86/158/86 101/187/87 
f 101/187/87 100/188/85 84/159/84 
f 86/158/86 88/161/88 102/189/89 
f 102/189/89 101/187/87 86/158/86 
f 88/165/88 90/164/90 103/190/91 
f 103/190/91 102/191/89 88/165/88 
f 90/164/90 82/192/80 99/193/83 
f 99/193/83 103/190/91 90/164/90 
f 99/184/83 98/183/82 104/194/92 
f 98/183/82 100/195/85 104/194/92 
f 100/188/85 101/187/87 104/196/92 
f 101/187/87 102/189/89 104/196/92 
f 102/191/89 103/190/91 104/197/92 
f 103/190/91 99/193/83 104/197/92 
s 8
f 105/198/93 106/199/94 107/200/95 
f 107/200/95 108/201/96 105/198/93 
f 106/202/94 109/203/97 110/204/98 
f 110/204/98 107/205/95 106/202/94 
f 109/203/97 111/206/99 112/207/100 
f 112/207/100 110/204/98 109/203/97 
f 111/208/99 113/209/101 114/210/102 
f 114/210/102 112/211/100 111/208/99 
f 113/212/101 115/213/103 116/214/104 
f 116/214/104 114/215/102 113/212/101 
f 115/213/103 105/216/93 108/217/96 
f 108/217/96 116/214/104 115/213/103 
s 1
f 106/218/105 105/219/105 117/220/105 
f 117/220/105 118/221/105 106/218/105 
f 109/222/105 106/218/105 118/221/105 
f 118/221/105 119/223/105 109/222/105 
f 111/224/105 109/222/105 119/223/105 
f 119/223/105 120/225/105 111/224/105 
f 113/226/105 111/224/105 120/225/105 
f 120/225/105 121/227/105 113/226/105 
f 115/228/105 113/226/105 121/227/105 
f 121/227/105 122/229/105 115/228/105 
f 105/219/105 115/228/105 122/229/105 
f 122/229/105 117/220/105 105/219/105 
f 118/221/105 117/220/105 123/230/105 
f 119/223/105 118/221/105 123/230/105 
f 120/225/105 119/223/105 123/230/105 
f 121/227/105 120/225/105 123/230/105 
f 122/229/105 121/227/105 123/230/105 
f 117/220/105 122/229/105 123/230/105 
f 108/201/106 107/200/107 124/231/108 
f 124/231/108 125/232/109 108/201/106 
f 107/205/107 110/204/110 126/233/111 
f 126/233/111 124/234/108 107/205/107 
f 110/204/110 112/207/112 127/235/113 
f 127/235/113 126/233/111 110/204/110 
f 112/236/112 114/237/114 128/238/115 
f 128/238/115 127/239/113 112/236/112 
f 114/237/114 116/240/116 129/241/117 
f 129/241/117 128/238/115 114/237/114 
f 116/242/116 108/243/106 125/244/109 
f 125/244/109 129/245/117 116/242/116 
f 125/232/109 124/231/108 130/246/118 
f 124/234/108 126/233/111 130/247/118 
f 126/248/111 127/249/113 130/250/118 
f 127/239/113 128/238/115 130/251/118 
f 128/238/115 129/241/117 130/251/118 
f 129/245/117 125/244/109 130/252/118 
# 240 faces

