# 3ds Max Wavefront OBJ Exporter v0.97b - (c)2007 guruware
# File Created: 25.05.2019 14:31:26

#
# object cp_GAME
#

v  20.4381 6.3660 54.2052
v  24.9678 6.3660 54.2052
v  26.5528 6.3660 55.7902
v  20.4381 6.3660 69.7387
v  26.5528 6.3660 68.1538
v  24.9678 6.3660 69.7387
v  20.4381 113.8967 69.7387
v  24.9678 113.8967 69.7387
v  26.5528 113.8967 68.1538
v  26.5528 113.8967 55.7902
v  24.9678 113.8967 54.2052
v  20.4381 113.8967 54.2052
v  19.6440 117.3988 52.2077
v  19.6440 117.3988 71.8803
v  26.7783 117.3988 71.8803
v  26.7783 117.3988 52.2077
v  19.6440 111.0329 52.2077
v  26.7783 111.0329 52.2077
v  26.7783 111.0329 71.8803
v  19.6440 111.0329 71.8803
v  27.4775 116.6996 52.2077
v  27.4775 111.7321 52.2077
v  27.4775 116.6996 71.8803
v  27.4775 111.7321 71.8803
v  19.6440 0.1251 71.8803
v  19.6440 0.1251 52.2077
v  26.7783 0.1251 52.2077
v  26.7783 0.1251 71.8803
v  19.6440 6.4911 71.8803
v  26.7783 6.4911 71.8803
v  26.7783 6.4911 52.2077
v  19.6440 6.4911 52.2077
v  27.4775 0.8244 71.8803
v  27.4775 5.7918 71.8803
v  27.4775 0.8244 52.2077
v  27.4775 5.7918 52.2077
# 36 vertices

vn 0.0000 -1.0000 -0.0000
vn 0.0000 1.0000 -0.0000
vn 0.0000 0.0000 1.0000
vn 1.0000 0.0000 -0.0000
vn 0.0000 0.0000 -1.0000
vn -1.0000 0.0000 -0.0000
vn 0.7071 0.0000 0.7071
vn 0.7071 0.0000 -0.7071
vn -0.0000 0.0000 -1.0000
vn -0.0000 -0.0000 1.0000
vn 0.0000 -0.0000 1.0000
vn 0.7071 0.7071 -0.0000
vn 0.7071 -0.7071 -0.0000
vn 0.0000 1.0000 0.0000
vn 0.7071 0.7071 0.0000
# 15 vertex normals

vt 0.7372 0.8038 0.0000
vt 0.7372 0.8315 0.0000
vt 0.7275 0.8412 0.0000
vt 0.6421 0.8038 0.0000
vt 0.6518 0.8412 0.0000
vt 0.6421 0.8315 0.0000
vt 0.7682 0.8389 0.0000
vt 0.7682 0.8112 0.0000
vt 0.7779 0.8015 0.0000
vt 0.8535 0.8015 0.0000
vt 0.8632 0.8112 0.0000
vt 0.8632 0.8389 0.0000
vt 0.5397 0.8004 0.0000
vt 0.5079 0.8004 0.0000
vt 0.5079 0.0443 0.0000
vt 0.5397 0.0443 0.0000
vt 0.9714 0.7566 0.0000
vt 0.8957 0.7566 0.0000
vt 0.8957 0.0988 0.0000
vt 0.9714 0.0988 0.0000
vt 0.8003 0.7620 0.0000
vt 0.7726 0.7620 0.0000
vt 0.7726 0.1042 0.0000
vt 0.8003 0.1042 0.0000
vt 0.7286 0.7531 0.0000
vt 0.6335 0.7531 0.0000
vt 0.6335 0.0953 0.0000
vt 0.7286 0.0953 0.0000
vt 0.5911 0.7755 0.0000
vt 0.5799 0.7755 0.0000
vt 0.5799 0.0194 0.0000
vt 0.5911 0.0194 0.0000
vt 0.8546 0.7204 0.0000
vt 0.8449 0.7204 0.0000
vt 0.8449 0.0626 0.0000
vt 0.8546 0.0626 0.0000
vt 0.2928 0.3704 0.0000
vt 0.0263 0.3704 0.0000
vt 0.0263 0.2737 0.0000
vt 0.2928 0.2737 0.0000
vt 0.3367 0.5545 0.0000
vt 0.4333 0.5545 0.0000
vt 0.4333 0.8209 0.0000
vt 0.3367 0.8209 0.0000
vt 0.7709 0.8682 0.0000
vt 0.8675 0.8682 0.0000
vt 0.8770 0.8777 0.0000
vt 0.8770 0.9450 0.0000
vt 0.8675 0.9545 0.0000
vt 0.7709 0.9545 0.0000
vt 0.2928 0.1726 0.0000
vt 0.0263 0.1726 0.0000
vt 0.0263 0.1053 0.0000
vt 0.2928 0.1053 0.0000
vt 0.6363 0.8692 0.0000
vt 0.7330 0.8692 0.0000
vt 0.7330 0.9554 0.0000
vt 0.6363 0.9554 0.0000
vt 0.6269 0.9459 0.0000
vt 0.6269 0.8786 0.0000
vt 0.3466 0.5013 0.0000
vt 0.3466 0.2348 0.0000
vt 0.4329 0.2348 0.0000
vt 0.4329 0.5013 0.0000
vt 0.0184 0.2339 0.0000
vt 0.0184 0.2245 0.0000
vt 0.2849 0.2245 0.0000
vt 0.2849 0.2339 0.0000
vt 0.3009 0.0377 0.0000
vt 0.3009 0.0471 0.0000
vt 0.0344 0.0471 0.0000
vt 0.0344 0.0377 0.0000
vt 0.0270 0.4165 0.0000
vt 0.3005 0.4165 0.0000
vt 0.3005 0.5157 0.0000
vt 0.0270 0.5157 0.0000
vt 0.0401 0.8427 0.0000
vt 0.0401 0.7435 0.0000
vt 0.3136 0.7435 0.0000
vt 0.3136 0.8427 0.0000
vt 0.1369 0.9750 0.0000
vt 0.0377 0.9750 0.0000
vt 0.0280 0.9653 0.0000
vt 0.0280 0.8963 0.0000
vt 0.0377 0.8865 0.0000
vt 0.1369 0.8865 0.0000
vt 0.0175 0.5932 0.0000
vt 0.2910 0.5932 0.0000
vt 0.2910 0.6623 0.0000
vt 0.0175 0.6623 0.0000
vt 0.5785 0.9596 0.0000
vt 0.4793 0.9596 0.0000
vt 0.4793 0.8711 0.0000
vt 0.5785 0.8711 0.0000
vt 0.5882 0.8808 0.0000
vt 0.5882 0.9499 0.0000
vt 0.4469 0.9750 0.0000
vt 0.1734 0.9750 0.0000
vt 0.1734 0.8865 0.0000
vt 0.4469 0.8865 0.0000
vt 0.2921 0.5543 0.0000
vt 0.2921 0.5640 0.0000
vt 0.0186 0.5640 0.0000
vt 0.0186 0.5543 0.0000
vt 0.0301 0.7127 0.0000
vt 0.0301 0.7030 0.0000
vt 0.3036 0.7030 0.0000
vt 0.3036 0.7127 0.0000
# 108 texture coords

g cp_GAME
s 1
f 1/1/1 2/2/1 3/3/1 
f 4/4/1 1/1/1 3/3/1 
f 3/3/1 5/5/1 6/6/1 
f 4/4/1 3/3/1 6/6/1 
f 7/7/2 8/8/2 9/9/2 
f 9/9/2 10/10/2 11/11/2 
f 7/7/2 9/9/2 11/11/2 
f 7/7/2 11/11/2 12/12/2 
s 2
f 4/13/3 6/14/3 8/15/3 
f 8/15/3 7/16/3 4/13/3 
f 5/17/4 3/18/4 10/19/4 
f 10/19/4 9/20/4 5/17/4 
f 2/21/5 1/22/5 12/23/5 
f 12/23/5 11/24/5 2/21/5 
s 4
f 1/25/6 4/26/6 7/27/6 
f 7/27/6 12/28/6 1/25/6 
f 6/29/7 5/30/7 9/31/7 
f 9/31/7 8/32/7 6/29/7 
f 3/33/8 2/34/8 11/35/8 
f 11/35/8 10/36/8 3/33/8 
s 1
f 13/37/2 14/38/2 15/39/2 
f 15/39/2 16/40/2 13/37/2 
f 17/41/1 18/42/1 19/43/1 
f 19/43/1 20/44/1 17/41/1 
s 2
f 13/45/5 16/46/5 21/47/9 
f 21/47/9 22/48/9 18/49/9 
f 13/45/5 21/47/9 18/49/9 
f 13/45/5 18/49/9 17/50/5 
s 1
f 21/51/4 23/52/4 24/53/4 
f 24/53/4 22/54/4 21/51/4 
s 2
f 15/55/10 14/56/11 20/57/11 
f 20/57/11 19/58/3 24/59/10 
f 15/55/10 20/57/11 24/59/10 
f 23/60/10 15/55/10 24/59/10 
s 4
f 14/61/6 13/62/6 17/63/6 
f 17/63/6 20/64/6 14/61/6 
f 15/65/12 23/66/12 21/67/12 
f 21/67/12 16/68/12 15/65/12 
f 18/69/13 22/70/13 24/71/13 
f 24/71/13 19/72/13 18/69/13 
s 1
f 25/73/1 26/74/1 27/75/1 
f 27/75/1 28/76/1 25/73/1 
f 29/77/14 30/78/14 31/79/14 
f 31/79/14 32/80/14 29/77/14 
s 2
f 25/81/11 28/82/3 33/83/10 
f 33/83/10 34/84/10 30/85/10 
f 25/81/11 33/83/10 30/85/10 
f 25/81/11 30/85/10 29/86/11 
s 1
f 33/87/4 35/88/4 36/89/4 
f 36/89/4 34/90/4 33/87/4 
s 2
f 27/91/9 26/92/5 32/93/5 
f 32/93/5 31/94/5 36/95/9 
f 27/91/9 32/93/5 36/95/9 
f 35/96/9 27/91/9 36/95/9 
s 4
f 26/97/6 25/98/6 29/99/6 
f 29/99/6 32/100/6 26/97/6 
f 27/101/13 35/102/13 33/103/13 
f 33/103/13 28/104/13 27/101/13 
f 30/105/15 34/106/15 36/107/15 
f 36/107/15 31/108/15 30/105/15 
# 60 faces

