# 3ds Max Wavefront OBJ Exporter v0.97b - (c)2007 guruware
# File Created: 25.05.2019 11:32:20

#
# object LuzLamp_GAME
#

v  273.8419 0.0000 -16.1026
v  259.0532 0.0000 -16.1026
v  256.1979 26.8734 -18.9578
v  276.6971 26.8734 -18.9578
v  259.0532 0.0000 -1.3139
v  256.1979 26.8734 1.5414
v  273.8419 0.0000 -1.3139
v  276.6971 26.8734 1.5414
# 8 vertices

vn 0.6993 -0.1486 -0.6993
vn -0.6993 -0.1486 -0.6993
vn -0.6993 -0.1486 0.6993
vn 0.6993 -0.1486 0.6993
vn 0.0000 -1.0000 -0.0000
vn 0.0000 1.0000 -0.0000
# 6 vertex normals

vt 0.4470 0.7468 0.0000
vt 0.3952 0.7468 0.0000
vt 0.3752 0.6136 0.0000
vt 0.4470 0.6136 0.0000
vt 0.4989 0.5993 0.0000
vt 0.4470 0.5993 0.0000
vt 0.4470 0.4661 0.0000
vt 0.5189 0.4661 0.0000
vt 0.3952 0.5993 0.0000
vt 0.3752 0.4661 0.0000
vt 0.4989 0.7468 0.0000
vt 0.5189 0.6136 0.0000
vt 0.5403 0.6136 0.0000
vt 0.6132 0.6206 0.0000
vt 0.6062 0.6936 0.0000
vt 0.5332 0.6866 0.0000
vt 0.6344 0.5770 0.0000
vt 0.5332 0.5672 0.0000
vt 0.5430 0.4661 0.0000
vt 0.6441 0.4758 0.0000
# 20 texture coords

g LuzLamp_GAME
s 8
f 1/1/1 2/2/2 3/3/2 
f 3/3/2 4/4/1 1/1/1 
f 2/5/2 5/6/3 6/7/3 
f 6/7/3 3/8/2 2/5/2 
f 5/6/3 7/9/4 8/10/4 
f 8/10/4 6/7/3 5/6/3 
f 7/11/4 1/1/1 4/4/1 
f 4/4/1 8/12/4 7/11/4 
s 1
f 5/13/5 2/14/5 1/15/5 
f 1/15/5 7/16/5 5/13/5 
f 3/17/6 6/18/6 8/19/6 
f 8/19/6 4/20/6 3/17/6 
# 12 faces

#
# object Lamp_GAME
#

v  249.5199 24.0038 5.3998
v  249.5199 24.0038 -22.5971
v  283.0754 24.0038 -22.5971
v  283.0754 24.0038 5.3998
v  261.0775 34.1606 -4.2432
v  271.5179 34.1606 -4.2432
v  271.5179 34.1606 -12.9541
v  261.0775 34.1606 -12.9541
v  267.0352 34.8156 -11.2928
v  267.1812 38.0755 -11.1251
v  264.9273 38.1755 -11.1066
v  264.7813 34.9156 -11.2743
v  266.9362 35.6795 -61.5393
v  264.6824 35.7795 -61.5208
v  264.8284 39.0394 -61.3531
v  267.0822 38.9394 -61.3716
v  274.9482 -1.5553 -17.2089
v  274.9482 -1.5553 -0.2076
v  257.9469 -1.5553 -0.2076
v  257.9469 -1.5553 -17.2089
v  260.7532 1.3876 0.8944
v  258.2972 24.5038 3.3505
v  254.7854 26.2957 2.9539
v  272.1418 1.3876 0.8944
v  274.5978 24.5038 3.3505
v  278.1096 26.2957 2.9539
v  278.5062 24.5038 -16.8585
v  276.0502 1.3876 -14.4025
v  278.1096 26.2957 -20.3703
v  278.5062 24.5038 -0.5579
v  276.0502 1.3876 -3.0139
v  260.7532 1.3876 -18.3109
v  272.1418 1.3876 -18.3109
v  258.2972 24.5038 -20.7669
v  254.7854 26.2957 -20.3703
v  274.5978 24.5038 -20.7669
v  256.8449 1.3876 -14.4025
v  254.3888 24.5038 -16.8586
v  256.8449 1.3876 -3.0139
v  254.3888 24.5038 -0.5579
v  259.0532 -0.2776 -1.3139
v  273.8419 -0.2776 -1.3139
v  273.8419 -0.2776 -16.1026
v  259.0532 -0.2776 -16.1026
v  256.1979 26.5958 1.5414
v  258.2972 24.7172 1.3418
v  260.7532 1.6010 -1.1143
v  272.1418 1.6010 -1.1143
v  274.5978 24.7172 1.3418
v  276.6971 26.5958 1.5414
v  274.0415 1.6010 -14.4025
v  276.4975 24.7172 -16.8585
v  276.6971 26.5958 -18.9578
v  276.4975 24.7172 -0.5579
v  274.0415 1.6010 -3.0139
v  272.1418 1.6010 -16.3022
v  260.7532 1.6010 -16.3022
v  258.2972 24.7172 -18.7582
v  256.1979 26.5958 -18.9578
v  274.5978 24.7172 -18.7582
v  256.3975 24.7172 -16.8585
v  258.8536 1.6010 -14.4025
v  258.8535 1.6010 -3.0139
v  256.3975 24.7172 -0.5579
v  266.0390 40.6877 -8.4697
v  267.7940 38.6612 -11.5094
v  264.2840 38.6612 -11.5094
v  262.5290 38.6612 -8.4697
v  264.2840 38.6612 -5.4299
v  267.7940 38.6612 -5.4299
v  269.5490 38.6612 -8.4697
v  264.2840 34.6081 -11.5094
v  267.7940 34.6081 -11.5094
v  262.5290 34.6081 -8.4697
v  264.2840 34.6081 -5.4299
v  267.7940 34.6081 -5.4299
v  269.5490 34.6081 -8.4697
v  266.0390 32.5816 -8.4697
# 78 vertices

vn 0.0000 -1.0000 -0.0000
vn 0.0000 1.0000 -0.0000
vn 0.0000 0.6885 0.7252
vn 0.6601 0.7512 -0.0000
vn 0.0000 0.6885 -0.7252
vn -0.6601 0.7512 -0.0000
vn 0.0059 -0.0517 0.9986
vn -0.0059 0.0517 -0.9986
vn -0.0445 -0.9989 -0.0171
vn -0.0444 -0.9989 -0.0171
vn -0.9990 0.0446 0.0027
vn 0.0445 0.9989 0.0171
vn 0.9990 -0.0446 -0.0027
vn -0.1727 -0.1222 0.9774
vn -0.2353 -0.1360 0.9624
vn -0.0000 -0.3507 0.9365
vn 0.2433 -0.1280 0.9615
vn 0.1769 -0.1308 0.9755
vn -0.0000 0.2161 0.9764
vn 0.9615 -0.1280 -0.2433
vn 0.9755 -0.1308 -0.1769
vn 0.9764 0.2161 0.0000
vn 0.9774 -0.1222 0.1727
vn 0.9624 -0.1360 0.2353
vn 0.9365 -0.3507 -0.0000
vn 0.9365 -0.3507 0.0000
vn 0.0000 -0.3507 -0.9365
vn -0.2433 -0.1280 -0.9615
vn -0.1769 -0.1308 -0.9755
vn 0.0000 0.2161 -0.9764
vn 0.1727 -0.1222 -0.9774
vn 0.2353 -0.1360 -0.9624
vn -0.9774 -0.1222 -0.1727
vn -0.9624 -0.1360 -0.2353
vn -0.9365 -0.3507 -0.0000
vn -0.9615 -0.1280 0.2433
vn -0.9755 -0.1308 0.1769
vn -0.9764 0.2161 0.0000
vn -0.9764 0.2161 -0.0000
vn 0.0000 0.1057 -0.9944
vn -0.0000 0.1057 -0.9944
vn -0.9944 0.1057 0.0000
vn -0.9944 0.1057 -0.0000
vn -0.0000 0.1057 0.9944
vn 0.0000 0.1057 0.9944
vn 0.9944 0.1057 -0.0000
vn 0.9944 0.1057 0.0000
vn 0.9945 0.1045 0.0111
vn -0.0000 0.9944 0.1057
vn -0.9945 0.1045 0.0111
vn 0.1051 0.9889 0.1051
vn -0.1051 0.9889 0.1051
vn 0.0000 -0.9944 -0.1057
vn 0.0111 0.1045 0.9945
vn 0.1051 0.9889 -0.1051
vn -0.1057 -0.9944 -0.0000
vn 0.0111 0.1045 -0.9945
vn 0.1057 0.9944 0.0000
vn 0.1057 0.9944 -0.0000
vn 0.0000 0.9944 -0.1057
vn 0.9945 0.1045 -0.0111
vn -0.1051 0.9889 -0.1051
vn -0.0000 -0.9944 0.1057
vn -0.9945 0.1045 -0.0111
vn -0.0111 0.1045 0.9945
vn -0.1057 0.9944 -0.0000
vn -0.0111 0.1045 -0.9945
vn 0.1057 -0.9944 -0.0000
vn 0.4487 0.4413 -0.7771
vn -0.4487 0.4413 -0.7771
vn -0.8973 0.4413 -0.0000
vn -0.4487 0.4413 0.7771
vn 0.4487 0.4413 0.7771
vn 0.8973 0.4413 0.0000
vn -0.4487 -0.4413 -0.7771
vn 0.4487 -0.4413 -0.7771
vn -0.8973 -0.4413 -0.0000
vn -0.4487 -0.4413 0.7771
vn 0.4487 -0.4413 0.7771
vn 0.8973 -0.4413 0.0000
vn -0.0000 -1.0000 -0.0000
# 81 vertex normals

vt 0.8645 0.1510 0.0000
vt 0.8645 0.3997 0.0000
vt 0.5664 0.3997 0.0000
vt 0.5664 0.1510 0.0000
vt 0.8775 0.4961 0.0000
vt 0.9702 0.4961 0.0000
vt 0.9702 0.5735 0.0000
vt 0.8775 0.5735 0.0000
vt 0.9328 0.1192 0.0000
vt 0.6348 0.1192 0.0000
vt 0.7374 0.0290 0.0000
vt 0.8302 0.0290 0.0000
vt 0.5248 0.0238 0.0000
vt 0.5248 0.2725 0.0000
vt 0.4346 0.1868 0.0000
vt 0.4346 0.1095 0.0000
vt 0.5571 0.4375 0.0000
vt 0.8552 0.4375 0.0000
vt 0.7525 0.5277 0.0000
vt 0.6598 0.5277 0.0000
vt 0.8956 0.4213 0.0000
vt 0.8956 0.1726 0.0000
vt 0.9859 0.2583 0.0000
vt 0.9859 0.3357 0.0000
vt 0.1480 0.5923 0.0000
vt 0.2042 0.5923 0.0000
vt 0.2042 0.6311 0.0000
vt 0.1480 0.6311 0.0000
vt 0.0297 0.6400 0.0000
vt 0.0297 0.6012 0.0000
vt 0.0859 0.6012 0.0000
vt 0.0859 0.6400 0.0000
vt 0.9150 0.8382 0.0000
vt 0.9150 0.8770 0.0000
vt 0.0510 0.8723 0.0000
vt 0.0510 0.8334 0.0000
vt 0.9345 0.9252 0.0000
vt 0.9345 0.9814 0.0000
vt 0.0705 0.9518 0.0000
vt 0.0705 0.8956 0.0000
vt 0.9673 0.6688 0.0000
vt 0.9673 0.7076 0.0000
vt 0.1034 0.7123 0.0000
vt 0.1034 0.6735 0.0000
vt 0.9321 0.7540 0.0000
vt 0.9299 0.8102 0.0000
vt 0.0654 0.8059 0.0000
vt 0.0676 0.7498 0.0000
vt 0.4076 0.5502 0.0000
vt 0.3667 0.5463 0.0000
vt 0.3706 0.5054 0.0000
vt 0.4115 0.5094 0.0000
vt 0.5326 0.5824 0.0000
vt 0.5326 0.5266 0.0000
vt 0.5393 0.5223 0.0000
vt 0.5393 0.5895 0.0000
vt 0.5132 0.5824 0.0000
vt 0.5103 0.5895 0.0000
vt 0.5048 0.5266 0.0000
vt 0.4995 0.5223 0.0000
vt 0.4570 0.4305 0.0000
vt 0.4570 0.4863 0.0000
vt 0.4503 0.4934 0.0000
vt 0.4503 0.4262 0.0000
vt 0.4848 0.4305 0.0000
vt 0.4901 0.4262 0.0000
vt 0.4764 0.4863 0.0000
vt 0.4793 0.4934 0.0000
vt 0.4242 0.4863 0.0000
vt 0.4437 0.4863 0.0000
vt 0.4213 0.4934 0.0000
vt 0.4158 0.4305 0.0000
vt 0.4105 0.4262 0.0000
vt 0.4437 0.4305 0.0000
vt 0.5654 0.5824 0.0000
vt 0.5738 0.5266 0.0000
vt 0.5791 0.5223 0.0000
vt 0.5683 0.5895 0.0000
vt 0.5460 0.5824 0.0000
vt 0.5460 0.5266 0.0000
vt 0.2925 0.5569 0.0000
vt 0.3280 0.5604 0.0000
vt 0.3246 0.5959 0.0000
vt 0.2890 0.5925 0.0000
vt 0.6647 0.5614 0.0000
vt 0.6679 0.5659 0.0000
vt 0.6679 0.6217 0.0000
vt 0.6647 0.6262 0.0000
vt 0.6873 0.6217 0.0000
vt 0.6899 0.6262 0.0000
vt 0.6957 0.5659 0.0000
vt 0.6997 0.5614 0.0000
vt 0.0815 0.3593 0.0000
vt 0.0783 0.3548 0.0000
vt 0.0783 0.2990 0.0000
vt 0.0815 0.2945 0.0000
vt 0.0504 0.2990 0.0000
vt 0.0465 0.2945 0.0000
vt 0.0588 0.3548 0.0000
vt 0.0563 0.3593 0.0000
vt 0.0848 0.3548 0.0000
vt 0.1042 0.3548 0.0000
vt 0.1068 0.3593 0.0000
vt 0.1126 0.2990 0.0000
vt 0.1165 0.2945 0.0000
vt 0.0848 0.2990 0.0000
vt 0.6297 0.5614 0.0000
vt 0.6336 0.5659 0.0000
vt 0.6420 0.6217 0.0000
vt 0.6394 0.6262 0.0000
vt 0.6614 0.6217 0.0000
vt 0.6614 0.5659 0.0000
vt 0.3306 0.5354 0.0000
vt 0.3390 0.4796 0.0000
vt 0.3424 0.4801 0.0000
vt 0.3340 0.5359 0.0000
vt 0.3165 0.6464 0.0000
vt 0.2890 0.6458 0.0000
vt 0.2891 0.6410 0.0000
vt 0.3166 0.6415 0.0000
vt 0.5082 0.5261 0.0000
vt 0.5166 0.5819 0.0000
vt 0.7462 0.5694 0.0000
vt 0.7452 0.6189 0.0000
vt 0.7418 0.6223 0.0000
vt 0.7429 0.5660 0.0000
vt 0.0466 0.3707 0.0000
vt 0.0860 0.3715 0.0000
vt 0.0859 0.3763 0.0000
vt 0.0465 0.3755 0.0000
vt 0.2768 0.4796 0.0000
vt 0.2852 0.5354 0.0000
vt 0.2818 0.5359 0.0000
vt 0.2734 0.4801 0.0000
vt 0.7957 0.5704 0.0000
vt 0.7992 0.5671 0.0000
vt 0.2891 0.5997 0.0000
vt 0.3285 0.6005 0.0000
vt 0.3284 0.6053 0.0000
vt 0.2890 0.6045 0.0000
vt 0.4730 0.4858 0.0000
vt 0.4814 0.4300 0.0000
vt 0.1248 0.3761 0.0000
vt 0.0973 0.3755 0.0000
vt 0.0974 0.3707 0.0000
vt 0.1249 0.3712 0.0000
vt 0.2891 0.6205 0.0000
vt 0.3166 0.6210 0.0000
vt 0.3165 0.6258 0.0000
vt 0.2890 0.6253 0.0000
vt 0.4193 0.4300 0.0000
vt 0.4276 0.4858 0.0000
vt 0.7947 0.6199 0.0000
vt 0.7981 0.6234 0.0000
vt 0.1316 0.5219 0.0000
vt 0.0922 0.5211 0.0000
vt 0.0923 0.5162 0.0000
vt 0.1317 0.5170 0.0000
vt 0.1801 0.5383 0.0000
vt 0.1885 0.4825 0.0000
vt 0.1919 0.4830 0.0000
vt 0.1836 0.5388 0.0000
vt 0.5620 0.5819 0.0000
vt 0.5704 0.5261 0.0000
vt 0.3668 0.5540 0.0000
vt 0.3943 0.5546 0.0000
vt 0.3942 0.5594 0.0000
vt 0.3667 0.5589 0.0000
vt 0.0471 0.4437 0.0000
vt 0.0555 0.4995 0.0000
vt 0.0521 0.5000 0.0000
vt 0.0437 0.4442 0.0000
vt 0.1316 0.5388 0.0000
vt 0.0922 0.5381 0.0000
vt 0.0923 0.5332 0.0000
vt 0.1317 0.5340 0.0000
vt 0.0858 0.1172 0.0000
vt 0.0242 0.0816 0.0000
vt 0.0858 0.0461 0.0000
vt 0.1475 0.0816 0.0000
vt 0.1475 0.1528 0.0000
vt 0.0858 0.1884 0.0000
vt 0.0242 0.1528 0.0000
vt 0.2749 0.4445 0.0000
vt 0.1928 0.4445 0.0000
vt 0.1928 0.3829 0.0000
vt 0.2749 0.3829 0.0000
vt 0.2749 0.1269 0.0000
vt 0.1928 0.1269 0.0000
vt 0.1928 0.0558 0.0000
vt 0.2749 0.0558 0.0000
vt 0.2749 0.1885 0.0000
vt 0.1928 0.1885 0.0000
vt 0.2749 0.2501 0.0000
vt 0.1928 0.2501 0.0000
vt 0.2749 0.3213 0.0000
vt 0.1928 0.3213 0.0000
vt 0.3608 0.3116 0.0000
vt 0.4224 0.3471 0.0000
vt 0.3608 0.3827 0.0000
vt 0.4224 0.2760 0.0000
vt 0.3608 0.2404 0.0000
vt 0.2992 0.2760 0.0000
vt 0.2992 0.3471 0.0000
# 204 texture coords

g Lamp_GAME
s 2
f 9/21/7 10/22/7 11/23/7 
f 11/23/7 12/24/7 9/21/7 
s 4
f 13/25/8 14/26/8 15/27/8 
f 15/27/8 16/28/8 13/25/8 
s 8
f 9/29/9 12/30/9 14/31/9 
f 14/31/9 13/32/9 9/29/9 
s 16
f 12/33/10 11/34/10 15/35/10 
f 15/35/10 14/36/10 12/33/10 
s 32
f 11/37/11 10/38/11 16/39/11 
f 16/39/11 15/40/11 11/37/11 
s 64
f 10/41/12 9/42/12 13/43/12 
f 13/43/12 16/44/12 10/41/12 
s 2
f 17/45/13 18/46/13 19/47/13 
f 19/47/13 20/48/13 17/45/13 
s 4
f 21/49/14 22/50/14 23/51/14 
f 23/51/14 24/52/14 21/49/14 
s 8
f 17/53/15 20/54/15 22/55/16 
f 22/55/16 21/56/16 17/53/15 
s 16
f 20/57/17 19/58/17 23/59/17 
f 23/59/17 22/60/17 20/57/17 
s 32
f 19/61/18 18/62/18 24/63/18 
f 24/63/18 23/64/18 19/61/18 
s 64
f 18/65/19 17/66/19 21/67/19 
f 21/67/19 24/68/19 18/65/19 
s 1
f 25/69/7 26/70/7 27/71/7 
f 27/71/7 28/72/7 25/69/7 
s off
f 29/73/20 30/74/20 31/75/20 
f 31/75/21 27/76/21 29/73/21 
f 32/77/22 29/73/22 27/76/22 
f 27/76/22 26/78/22 32/77/22 
f 33/79/23 32/77/23 26/78/23 
f 26/78/24 34/80/24 33/79/24 
f 30/74/25 33/79/25 34/80/25 
f 34/80/25 31/75/25 30/74/25 
f 35/81/26 36/82/26 25/83/26 
f 25/83/27 37/84/27 35/81/27 
f 38/85/28 35/81/28 37/84/28 
f 37/84/28 34/86/28 38/85/28 
f 39/87/29 38/85/29 34/86/29 
f 34/86/30 26/88/30 39/87/30 
f 36/82/31 39/87/31 26/88/31 
f 26/88/32 25/83/32 36/82/32 
f 40/89/33 41/90/33 25/83/33 
f 25/83/33 28/91/33 40/89/33 
f 42/92/34 40/89/34 28/91/34 
f 28/91/35 43/93/35 42/92/35 
f 44/94/36 42/92/36 43/93/36 
f 43/93/36 37/84/36 44/94/36 
f 41/90/37 44/94/37 37/84/37 
f 37/84/38 25/83/38 41/90/38 
f 45/95/39 46/96/39 43/97/39 
f 43/97/40 28/98/40 45/95/40 
f 47/99/41 45/95/41 28/98/41 
f 28/98/41 27/76/41 47/99/41 
f 48/100/42 47/99/42 27/76/42 
f 27/76/43 31/75/43 48/100/43 
f 46/96/44 48/100/44 31/75/44 
f 31/75/45 43/97/45 46/96/45 
s 1
f 49/101/8 50/102/8 51/103/8 
f 51/103/8 52/104/8 49/101/8 
s off
f 53/105/46 54/106/46 55/107/46 
f 55/107/47 49/108/47 53/105/47 
f 49/108/46 55/107/46 56/109/46 
f 56/109/46 50/110/46 49/108/46 
f 50/110/47 56/109/47 57/111/47 
f 57/111/47 58/112/47 50/110/47 
f 58/112/46 57/111/46 54/106/46 
f 54/106/46 53/105/46 58/112/46 
f 51/113/48 59/114/48 60/115/48 
f 60/115/48 61/116/48 51/113/48 
f 61/116/49 60/115/49 62/117/49 
f 62/117/49 58/118/49 61/116/49 
f 58/118/48 62/117/48 63/119/48 
f 63/119/48 50/120/48 58/118/48 
f 50/120/49 63/119/49 59/114/49 
f 59/114/49 51/113/49 50/120/49 
f 51/113/50 64/121/50 65/122/50 
f 65/122/51 52/123/51 51/113/51 
f 52/123/51 65/122/51 66/124/51 
f 66/124/51 67/125/51 52/123/51 
f 67/125/50 66/124/50 68/126/50 
f 68/126/51 61/116/51 67/125/51 
f 61/116/51 68/126/51 64/121/51 
f 64/121/51 51/113/51 61/116/51 
f 67/127/52 69/128/52 70/129/52 
f 70/129/52 52/130/52 67/127/52 
f 52/130/53 70/129/53 71/131/53 
f 71/131/52 49/108/52 52/130/52 
f 49/108/52 71/131/52 72/132/52 
f 72/132/53 53/105/53 49/108/53 
f 53/105/52 72/132/52 69/128/52 
f 69/128/52 67/127/52 53/105/52 
s 1
f 55/133/54 54/134/54 30/135/54 
f 30/135/54 29/136/54 55/133/54 
s 2
f 56/137/55 55/138/55 29/139/55 
f 29/139/55 32/140/55 56/137/55 
s 1
f 57/141/56 56/142/56 32/77/56 
f 32/77/56 33/79/56 57/141/56 
f 58/143/57 53/144/58 31/145/58 
f 31/145/58 34/146/57 58/143/57 
s 2
f 54/147/59 57/148/59 33/149/59 
f 33/149/59 30/150/59 54/147/59 
s 1
f 60/151/60 59/152/60 36/153/60 
f 36/153/60 35/154/60 60/151/60 
f 61/155/61 58/143/57 34/146/57 
f 34/146/57 37/156/61 61/155/61 
s 2
f 62/157/62 60/158/62 35/159/62 
f 35/159/62 38/160/62 62/157/62 
s 1
f 63/161/63 62/162/63 38/85/63 
f 38/85/63 39/87/63 63/161/63 
s 2
f 59/163/64 63/164/64 39/165/64 
f 39/165/64 36/166/65 59/163/64 
s 1
f 65/167/66 64/168/66 41/169/66 
f 41/169/66 40/170/66 65/167/66 
s 2
f 66/171/67 65/172/67 40/89/67 
f 40/89/67 42/92/67 66/171/67 
s 1
f 67/173/68 61/155/61 37/156/61 
f 37/156/61 43/174/68 67/173/68 
f 68/175/69 66/176/69 42/177/69 
f 42/177/69 44/178/69 68/175/69 
s 2
f 64/179/70 68/180/70 44/181/70 
f 44/181/70 41/182/70 64/179/70 
s 1
f 70/183/71 69/184/71 46/96/71 
f 46/96/71 45/95/71 70/183/71 
s 2
f 71/185/72 70/186/72 45/187/72 
f 45/187/72 47/188/72 71/185/72 
s 1
f 72/189/73 71/190/73 47/191/73 
f 47/191/73 48/192/73 72/189/73 
f 53/144/58 67/173/68 43/174/68 
f 43/174/68 31/145/58 53/144/58 
s 2
f 69/193/74 72/194/74 48/195/74 
f 48/195/74 46/196/74 69/193/74 
s 1
f 73/197/8 74/198/75 75/199/76 
f 73/197/8 75/199/76 76/200/77 
f 73/197/8 76/200/77 77/201/78 
f 73/197/8 77/201/78 78/202/79 
f 73/197/8 78/202/79 79/203/80 
f 73/197/8 79/203/80 74/198/75 
f 80/204/81 75/205/76 74/206/75 
f 74/206/75 81/207/82 80/204/81 
f 82/208/83 76/209/77 75/210/76 
f 75/210/76 80/211/81 82/208/83 
f 83/212/84 77/213/78 76/209/77 
f 76/209/77 82/208/83 83/212/84 
f 84/214/85 78/215/79 77/213/78 
f 77/213/78 83/212/84 84/214/85 
f 85/216/86 79/217/80 78/215/79 
f 78/215/79 84/214/85 85/216/86 
f 81/207/82 74/206/75 79/217/80 
f 79/217/80 85/216/86 81/207/82 
f 86/218/87 80/219/81 81/220/82 
f 86/218/87 82/221/83 80/219/81 
f 86/218/87 83/222/84 82/221/83 
f 86/218/87 84/223/85 83/222/84 
f 86/218/87 85/224/86 84/223/85 
f 86/218/87 81/220/82 85/224/86 
# 156 faces

