# 3ds Max Wavefront OBJ Exporter v0.97b - (c)2007 guruware
# File Created: 25.05.2019 13:08:04

#
# object ganchoOlla_GAME
#

v  98.3381 64.4089 -24.6494
v  98.3381 58.1005 -24.6494
v  93.7722 58.1005 -24.6494
v  93.7722 64.4089 -24.6494
v  98.3381 64.4089 9.2340
v  93.7722 64.4089 9.2340
v  93.7722 58.1005 9.2340
v  98.3381 58.1005 9.2340
v  89.6500 56.1982 -27.9175
v  89.6500 66.7585 -27.9175
v  101.0984 66.7585 -27.9175
v  101.0984 56.1982 -27.9175
v  89.6500 56.1982 -24.6495
v  101.0984 56.1982 -24.6495
v  101.0984 66.7585 -24.6495
v  89.6500 66.7585 -24.6495
v  95.0697 58.1005 0.8156
v  95.2329 58.1005 0.3132
v  95.2329 52.2355 0.3132
v  95.0697 52.2355 0.8156
v  95.6603 58.1005 0.0028
v  95.6603 52.2355 0.0028
v  96.1884 58.1005 0.0028
v  96.1884 52.2355 0.0028
v  96.6158 58.1005 0.3132
v  96.6158 52.2355 0.3132
v  96.7790 58.1005 0.8156
v  96.7790 52.2355 0.8156
v  96.6158 58.1005 1.3179
v  96.6158 52.2355 1.3179
v  96.1884 58.1005 1.6284
v  96.1884 52.2355 1.6284
v  95.6603 58.1005 1.6284
v  95.6603 52.2355 1.6284
v  95.2329 58.1005 1.3179
v  95.2329 52.2355 1.3179
v  95.2329 50.3769 0.3132
v  95.0697 50.3769 0.8156
v  95.6603 50.3769 0.0028
v  96.1884 50.3769 0.0028
v  96.6158 50.3769 0.3132
v  96.7790 50.3769 0.8156
v  96.6158 50.3769 1.3179
v  96.1884 50.3769 1.6284
v  95.6603 50.3769 1.6284
v  95.2329 50.3769 1.3179
v  95.2329 47.4365 0.1475
v  95.0697 47.4365 0.6499
v  95.6603 47.4003 -0.1629
v  96.1884 47.4003 -0.1629
v  96.6158 47.4003 0.1475
v  96.7790 47.4003 0.6499
v  96.6158 47.4003 1.1522
v  96.1884 47.4003 1.4627
v  95.6603 47.4003 1.4627
v  95.2329 47.4003 1.1522
v  95.2329 43.8130 1.0439
v  95.0697 44.1979 1.3668
v  95.6603 43.5752 0.8443
v  96.1884 43.5752 0.8443
v  96.6158 43.8130 1.0439
v  96.7790 44.1979 1.3668
v  96.6158 44.5827 1.6897
v  96.1884 44.8205 1.8892
v  95.6603 44.8205 1.8892
v  95.2329 44.5827 1.6897
v  95.7552 46.1330 5.5452
v  95.7152 46.2554 5.5345
v  95.8597 46.0573 5.5519
v  95.9890 46.0573 5.5519
v  96.0936 46.1330 5.5452
v  96.1335 46.2554 5.5345
v  96.0936 46.3779 5.5238
v  95.9890 46.4536 5.5172
v  95.8597 46.4536 5.5172
v  95.7552 46.3779 5.5238
# 76 vertices

vn 0.0000 0.0000 -1.0000
vn 0.0000 -0.0000 1.0000
vn 0.0000 -1.0000 -0.0000
vn 1.0000 0.0000 -0.0000
vn 0.0000 1.0000 0.0000
vn -1.0000 0.0000 -0.0000
vn -1.0000 0.0000 0.0000
vn -0.8090 0.0000 -0.5878
vn -1.0000 -0.0000 0.0000
vn -0.3090 0.0000 -0.9511
vn 0.3090 0.0000 -0.9511
vn 0.8090 0.0000 -0.5878
vn 1.0000 -0.0000 -0.0000
vn 1.0000 0.0000 0.0000
vn 0.8090 -0.0000 0.5878
vn 0.3090 -0.0000 0.9511
vn -0.3090 -0.0000 0.9511
vn -0.8090 -0.0000 0.5878
vn -0.8115 0.0163 -0.5841
vn -1.0000 -0.0003 0.0055
vn -0.3105 0.0266 -0.9502
vn 0.3105 0.0266 -0.9502
vn 0.8115 0.0162 -0.5841
vn 1.0000 -0.0003 0.0055
vn 0.8063 -0.0165 0.5912
vn 0.3073 -0.0263 0.9512
vn -0.3073 -0.0263 0.9512
vn -0.8064 -0.0165 0.5912
vn -0.7948 -0.0580 -0.6041
vn -0.9996 -0.0076 -0.0274
vn -0.3019 -0.0963 -0.9485
vn 0.2980 -0.0918 -0.9501
vn 0.7934 -0.0575 -0.6060
vn 0.9997 -0.0063 -0.0256
vn 0.8183 0.0340 0.5738
vn 0.3152 0.0524 0.9476
vn -0.3119 0.0576 0.9484
vn -0.8184 0.0419 0.5732
vn -0.7217 -0.6611 -0.2052
vn -0.9547 -0.2812 0.0972
vn -0.2712 -0.8720 -0.4075
vn 0.2697 -0.8737 -0.4048
vn 0.7203 -0.6655 -0.1958
vn 0.9515 -0.2874 0.1098
vn 0.8929 0.3980 0.2106
vn 0.3634 0.8460 0.3900
vn -0.3616 0.8415 0.4014
vn -0.8943 0.3889 0.2212
vn -0.7906 -0.4931 0.3631
vn -0.9907 0.0867 0.1045
vn -0.2908 -0.8342 0.4686
vn 0.3022 -0.8379 0.4546
vn 0.7974 -0.5006 0.3369
vn 0.9917 0.0757 0.1043
vn 0.7593 0.6239 -0.1848
vn 0.2625 0.8903 -0.3720
vn -0.2697 0.8836 -0.3829
vn -0.7529 0.6239 -0.2095
vn -0.0000 0.0872 0.9962
vn 0.0000 0.0872 0.9962
vn 0.0000 0.0871 0.9962
# 61 vertex normals

vt 0.3318 0.3006 0.0000
vt 0.3833 0.3006 0.0000
vt 0.3833 0.3379 0.0000
vt 0.3318 0.3379 0.0000
vt 0.3476 0.4210 0.0000
vt 0.3476 0.4583 0.0000
vt 0.2960 0.4583 0.0000
vt 0.2960 0.4210 0.0000
vt 0.9698 0.2427 0.0000
vt 0.9698 0.2800 0.0000
vt 0.6930 0.2800 0.0000
vt 0.6930 0.2427 0.0000
vt 0.9719 0.1375 0.0000
vt 0.9719 0.1890 0.0000
vt 0.6951 0.1890 0.0000
vt 0.6951 0.1375 0.0000
vt 0.9719 0.3631 0.0000
vt 0.9719 0.4004 0.0000
vt 0.6951 0.4004 0.0000
vt 0.6951 0.3631 0.0000
vt 0.9698 0.0344 0.0000
vt 0.9698 0.0859 0.0000
vt 0.6930 0.0859 0.0000
vt 0.6930 0.0344 0.0000
vt 0.1808 0.3132 0.0000
vt 0.1808 0.3995 0.0000
vt 0.0873 0.3995 0.0000
vt 0.0873 0.3132 0.0000
vt 0.1622 0.1723 0.0000
vt 0.0686 0.1723 0.0000
vt 0.0686 0.0860 0.0000
vt 0.1622 0.0860 0.0000
vt 0.5997 0.2715 0.0000
vt 0.5062 0.2715 0.0000
vt 0.5062 0.2448 0.0000
vt 0.5997 0.2448 0.0000
vt 0.1252 0.4780 0.0000
vt 0.0389 0.4780 0.0000
vt 0.0389 0.4513 0.0000
vt 0.1252 0.4513 0.0000
vt 0.6165 0.3730 0.0000
vt 0.5230 0.3730 0.0000
vt 0.5230 0.3463 0.0000
vt 0.6165 0.3463 0.0000
vt 0.3042 0.2214 0.0000
vt 0.2179 0.2214 0.0000
vt 0.2179 0.1947 0.0000
vt 0.3042 0.1947 0.0000
vt 0.6328 0.0611 0.0000
vt 0.6340 0.0650 0.0000
vt 0.5883 0.0794 0.0000
vt 0.5871 0.0755 0.0000
vt 0.3360 0.0658 0.0000
vt 0.3360 0.0623 0.0000
vt 0.3840 0.0623 0.0000
vt 0.3840 0.0658 0.0000
vt 0.3360 0.0580 0.0000
vt 0.3840 0.0580 0.0000
vt 0.3360 0.0545 0.0000
vt 0.3840 0.0545 0.0000
vt 0.5272 0.1557 0.0000
vt 0.5286 0.1518 0.0000
vt 0.5737 0.1681 0.0000
vt 0.5723 0.1719 0.0000
vt 0.5300 0.1480 0.0000
vt 0.5751 0.1642 0.0000
vt 0.4444 0.1447 0.0000
vt 0.4444 0.1482 0.0000
vt 0.3965 0.1482 0.0000
vt 0.3965 0.1447 0.0000
vt 0.4444 0.1525 0.0000
vt 0.3965 0.1525 0.0000
vt 0.4444 0.1560 0.0000
vt 0.3965 0.1560 0.0000
vt 0.6315 0.0572 0.0000
vt 0.5858 0.0716 0.0000
vt 0.5738 0.0840 0.0000
vt 0.5726 0.0801 0.0000
vt 0.3991 0.0623 0.0000
vt 0.3991 0.0658 0.0000
vt 0.3991 0.0580 0.0000
vt 0.3991 0.0545 0.0000
vt 0.5880 0.1732 0.0000
vt 0.5866 0.1771 0.0000
vt 0.5894 0.1694 0.0000
vt 0.3813 0.1482 0.0000
vt 0.3813 0.1447 0.0000
vt 0.3813 0.1525 0.0000
vt 0.3813 0.1560 0.0000
vt 0.5713 0.0762 0.0000
vt 0.5513 0.0926 0.0000
vt 0.5501 0.0886 0.0000
vt 0.4235 0.0623 0.0000
vt 0.4232 0.0658 0.0000
vt 0.4235 0.0580 0.0000
vt 0.4235 0.0545 0.0000
vt 0.6104 0.1827 0.0000
vt 0.6090 0.1866 0.0000
vt 0.6118 0.1789 0.0000
vt 0.3569 0.1482 0.0000
vt 0.3569 0.1447 0.0000
vt 0.3569 0.1525 0.0000
vt 0.3569 0.1560 0.0000
vt 0.5486 0.0848 0.0000
vt 0.5209 0.0945 0.0000
vt 0.5231 0.0910 0.0000
vt 0.4547 0.0623 0.0000
vt 0.4528 0.0658 0.0000
vt 0.4547 0.0580 0.0000
vt 0.4528 0.0545 0.0000
vt 0.6370 0.1861 0.0000
vt 0.6391 0.1896 0.0000
vt 0.6349 0.1825 0.0000
vt 0.3359 0.1482 0.0000
vt 0.3339 0.1447 0.0000
vt 0.3359 0.1525 0.0000
vt 0.3339 0.1560 0.0000
vt 0.5253 0.0876 0.0000
vt 0.5279 0.0537 0.0000
vt 0.5288 0.0535 0.0000
vt 0.2333 0.3318 0.0000
vt 0.2313 0.3285 0.0000
vt 0.2693 0.3225 0.0000
vt 0.2694 0.3234 0.0000
vt 0.2308 0.3242 0.0000
vt 0.2692 0.3215 0.0000
vt 0.2320 0.3206 0.0000
vt 0.2691 0.3206 0.0000
vt 0.6327 0.1483 0.0000
vt 0.6337 0.1486 0.0000
vt 0.6317 0.1481 0.0000
vt 0.4412 0.4271 0.0000
vt 0.4428 0.4236 0.0000
vt 0.4725 0.4219 0.0000
vt 0.4725 0.4228 0.0000
vt 0.4428 0.4193 0.0000
vt 0.4725 0.4209 0.0000
vt 0.4412 0.4158 0.0000
vt 0.4725 0.4200 0.0000
vt 0.5298 0.0533 0.0000
vt 0.6227 0.2448 0.0000
vt 0.6270 0.2448 0.0000
vt 0.6305 0.2473 0.0000
vt 0.6318 0.2514 0.0000
vt 0.6305 0.2555 0.0000
vt 0.6270 0.2581 0.0000
vt 0.6227 0.2581 0.0000
vt 0.6192 0.2555 0.0000
vt 0.6179 0.2514 0.0000
vt 0.6192 0.2473 0.0000
vt 0.5818 0.1555 0.0000
vt 0.5826 0.1549 0.0000
vt 0.5837 0.1549 0.0000
vt 0.5845 0.1555 0.0000
vt 0.5849 0.1565 0.0000
vt 0.5845 0.1575 0.0000
vt 0.5837 0.1581 0.0000
vt 0.5826 0.1581 0.0000
vt 0.5818 0.1575 0.0000
vt 0.5814 0.1565 0.0000
# 160 texture coords

g ganchoOlla_GAME
s 2
f 1/1/1 2/2/1 3/3/1 
f 3/3/1 4/4/1 1/1/1 
s 4
f 5/5/2 6/6/2 7/7/2 
f 7/7/2 8/8/2 5/5/2 
s 8
f 8/9/3 7/10/3 3/11/3 
f 3/11/3 2/12/3 8/9/3 
s 16
f 5/13/4 8/14/4 2/15/4 
f 2/15/4 1/16/4 5/13/4 
s 32
f 6/17/5 5/18/5 1/19/5 
f 1/19/5 4/20/5 6/17/5 
s 64
f 7/21/6 6/22/6 4/23/6 
f 4/23/6 3/24/6 7/21/6 
s 2
f 9/25/1 10/26/1 11/27/1 
f 11/27/1 12/28/1 9/25/1 
s 4
f 13/29/2 14/30/2 15/31/2 
f 15/31/2 16/32/2 13/29/2 
s 8
f 9/33/3 12/34/3 14/35/3 
f 14/35/3 13/36/3 9/33/3 
s 16
f 12/37/4 11/38/4 15/39/4 
f 15/39/4 14/40/4 12/37/4 
s 32
f 11/41/5 10/42/5 16/43/5 
f 16/43/5 15/44/5 11/41/5 
s 64
f 10/45/6 9/46/6 13/47/6 
f 13/47/6 16/48/6 10/45/6 
s 8
f 17/49/7 18/50/8 19/51/8 
f 19/51/8 20/52/9 17/49/7 
f 18/53/8 21/54/10 22/55/10 
f 22/55/10 19/56/8 18/53/8 
f 21/54/10 23/57/11 24/58/11 
f 24/58/11 22/55/10 21/54/10 
f 23/57/11 25/59/12 26/60/12 
f 26/60/12 24/58/11 23/57/11 
f 25/61/12 27/62/13 28/63/14 
f 28/63/14 26/64/12 25/61/12 
f 27/62/13 29/65/15 30/66/15 
f 30/66/15 28/63/14 27/62/13 
f 29/67/15 31/68/16 32/69/16 
f 32/69/16 30/70/15 29/67/15 
f 31/68/16 33/71/17 34/72/17 
f 34/72/17 32/69/16 31/68/16 
f 33/71/17 35/73/18 36/74/18 
f 36/74/18 34/72/17 33/71/17 
f 35/75/18 17/49/7 20/52/9 
f 20/52/9 36/76/18 35/75/18 
f 20/52/9 19/51/8 37/77/19 
f 37/77/19 38/78/20 20/52/9 
f 19/56/8 22/55/10 39/79/21 
f 39/79/21 37/80/19 19/56/8 
f 22/55/10 24/58/11 40/81/22 
f 40/81/22 39/79/21 22/55/10 
f 24/58/11 26/60/12 41/82/23 
f 41/82/23 40/81/22 24/58/11 
f 26/64/12 28/63/14 42/83/24 
f 42/83/24 41/84/23 26/64/12 
f 28/63/14 30/66/15 43/85/25 
f 43/85/25 42/83/24 28/63/14 
f 30/70/15 32/69/16 44/86/26 
f 44/86/26 43/87/25 30/70/15 
f 32/69/16 34/72/17 45/88/27 
f 45/88/27 44/86/26 32/69/16 
f 34/72/17 36/74/18 46/89/28 
f 46/89/28 45/88/27 34/72/17 
f 36/76/18 20/52/9 38/78/20 
f 38/78/20 46/90/28 36/76/18 
f 38/78/20 37/77/19 47/91/29 
f 47/91/29 48/92/30 38/78/20 
f 37/80/19 39/79/21 49/93/31 
f 49/93/31 47/94/29 37/80/19 
f 39/79/21 40/81/22 50/95/32 
f 50/95/32 49/93/31 39/79/21 
f 40/81/22 41/82/23 51/96/33 
f 51/96/33 50/95/32 40/81/22 
f 41/84/23 42/83/24 52/97/34 
f 52/97/34 51/98/33 41/84/23 
f 42/83/24 43/85/25 53/99/35 
f 53/99/35 52/97/34 42/83/24 
f 43/87/25 44/86/26 54/100/36 
f 54/100/36 53/101/35 43/87/25 
f 44/86/26 45/88/27 55/102/37 
f 55/102/37 54/100/36 44/86/26 
f 45/88/27 46/89/28 56/103/38 
f 56/103/38 55/102/37 45/88/27 
f 46/90/28 38/78/20 48/92/30 
f 48/92/30 56/104/38 46/90/28 
f 48/92/30 47/91/29 57/105/39 
f 57/105/39 58/106/40 48/92/30 
f 47/94/29 49/93/31 59/107/41 
f 59/107/41 57/108/39 47/94/29 
f 49/93/31 50/95/32 60/109/42 
f 60/109/42 59/107/41 49/93/31 
f 50/95/32 51/96/33 61/110/43 
f 61/110/43 60/109/42 50/95/32 
f 51/98/33 52/97/34 62/111/44 
f 62/111/44 61/112/43 51/98/33 
f 52/97/34 53/99/35 63/113/45 
f 63/113/45 62/111/44 52/97/34 
f 53/101/35 54/100/36 64/114/46 
f 64/114/46 63/115/45 53/101/35 
f 54/100/36 55/102/37 65/116/47 
f 65/116/47 64/114/46 54/100/36 
f 55/102/37 56/103/38 66/117/48 
f 66/117/48 65/116/47 55/102/37 
f 56/104/38 48/92/30 58/106/40 
f 58/106/40 66/118/48 56/104/38 
f 58/106/40 57/105/39 67/119/49 
f 67/119/49 68/120/50 58/106/40 
f 57/121/39 59/122/41 69/123/51 
f 69/123/51 67/124/49 57/121/39 
f 59/122/41 60/125/42 70/126/52 
f 70/126/52 69/123/51 59/122/41 
f 60/125/42 61/127/43 71/128/53 
f 71/128/53 70/126/52 60/125/42 
f 61/112/43 62/111/44 72/129/54 
f 72/129/54 71/130/53 61/112/43 
f 62/111/44 63/113/45 73/131/55 
f 73/131/55 72/129/54 62/111/44 
f 63/132/45 64/133/46 74/134/56 
f 74/134/56 73/135/55 63/132/45 
f 64/133/46 65/136/47 75/137/57 
f 75/137/57 74/134/56 64/133/46 
f 65/136/47 66/138/48 76/139/58 
f 76/139/58 75/137/57 65/136/47 
f 66/118/48 58/106/40 68/120/50 
f 68/120/50 76/140/58 66/118/48 
s 1
f 33/141/5 31/142/5 29/143/5 
f 29/143/5 27/144/5 25/145/5 
f 25/145/5 23/146/5 21/147/5 
f 21/147/5 18/148/5 17/149/5 
f 25/145/5 21/147/5 17/149/5 
f 29/143/5 25/145/5 17/149/5 
f 33/141/5 29/143/5 17/149/5 
f 35/150/5 33/141/5 17/149/5 
f 67/151/59 69/152/60 70/153/60 
f 70/153/60 71/154/61 72/155/60 
f 72/155/60 73/156/60 74/157/60 
f 74/157/60 75/158/60 76/159/59 
f 72/155/60 74/157/60 76/159/59 
f 70/153/60 72/155/60 76/159/59 
f 67/151/59 70/153/60 76/159/59 
f 68/160/59 67/151/59 76/159/59 
# 140 faces

